<svg xmlns="http://www.w3.org/2000/svg" viewBox="0 0 1600 1000" preserveAspectRatio="xMidYMid slice">
<rect width="1600" height="1000" fill="#3DD8F0"/>
<path d="M522.9,169.9 C520.7,224.6 438.4,310.2 405.9,356.1 C373.4,402.0 368.8,421.1 328.0,445.5 C287.3,470.0 198.3,512.6 161.4,502.9 C124.6,493.1 139.6,428.8 107.1,387.1 C74.5,345.3 -20.5,294.5 -33.7,252.2 C-46.9,209.9 18.0,176.3 27.8,133.2 C37.6,90.2 5.8,32.5 25.3,-6.0 C44.7,-44.5 93.1,-104.4 144.5,-97.8 C196.0,-91.2 288.3,12.4 334.0,33.3 C379.7,54.2 387.4,4.9 418.9,27.7 C450.4,50.4 525.0,115.2 522.9,169.9Z" fill="#28C0DA" stroke="none"/>
<path d="M858.0,261.8 C865.2,299.8 780.9,258.8 743.5,296.6 C706.1,334.5 674.8,463.6 633.6,488.8 C592.3,513.9 542.2,460.3 495.9,447.6 C449.5,434.9 383.6,442.7 355.4,412.6 C327.3,382.5 336.3,311.7 327.2,267.1 C318.1,222.5 296.5,197.8 300.9,144.9 C305.4,92.1 312.4,-15.9 353.9,-50.0 C395.4,-84.2 502.5,-67.0 550.1,-60.1 C597.7,-53.2 614.5,-29.9 639.5,-8.4 C664.6,13.1 663.8,23.7 700.2,68.7 C736.7,113.8 850.7,223.9 858.0,261.8Z" fill="#28C0DA" stroke="none"/>
<path d="M1249.0,184.6 C1257.8,225.1 1251.4,311.4 1219.9,348.7 C1188.4,386.1 1098.5,381.2 1060.1,408.8 C1021.8,436.4 1026.1,515.7 989.9,514.2 C953.6,512.6 887.6,445.5 842.6,399.5 C797.6,353.4 737.2,286.8 720.0,238.0 C702.7,189.1 718.8,140.4 739.2,106.3 C759.5,72.2 806.5,67.2 841.8,33.4 C877.1,-0.4 907.3,-81.7 951.0,-96.5 C994.7,-111.4 1068.0,-89.3 1104.0,-55.6 C1140.0,-21.9 1142.8,65.5 1167.0,105.5 C1191.1,145.6 1240.1,144.0 1249.0,184.6Z" fill="#28C0DA" stroke="none"/>
<path d="M1567.7,189.2 C1562.6,236.1 1556.5,285.7 1543.5,324.4 C1530.5,363.1 1536.6,392.6 1489.9,421.4 C1443.2,450.3 1314.6,505.7 1263.3,497.2 C1211.9,488.7 1205.5,407.6 1181.6,370.5 C1157.7,333.3 1127.8,307.1 1119.8,274.3 C1111.9,241.5 1133.9,220.1 1134.0,173.4 C1134.1,126.8 1085.7,38.5 1120.5,-5.5 C1155.3,-49.5 1284.9,-93.7 1342.7,-90.7 C1400.4,-87.6 1428.6,-9.3 1467.2,13.0 C1505.8,35.2 1557.7,13.6 1574.5,43.0 C1591.2,72.4 1572.9,142.4 1567.7,189.2Z" fill="#28C0DA" stroke="none"/>
<path d="M572.9,528.0 C580.6,578.2 557.9,666.3 526.7,713.4 C495.4,760.6 425.3,800.6 385.4,811.0 C345.5,821.4 340.6,795.0 287.0,775.9 C233.3,756.8 101.0,734.6 63.5,696.3 C26.1,658.0 64.0,586.8 62.3,546.0 C60.6,505.1 46.4,491.3 53.4,451.2 C60.3,411.1 78.4,331.5 104.1,305.4 C129.8,279.3 160.3,308.8 207.5,294.7 C254.6,280.5 341.7,200.8 387.2,220.4 C432.7,239.9 449.4,360.6 480.3,411.8 C511.3,463.1 565.2,477.7 572.9,528.0Z" fill="#28C0DA" stroke="none"/>
<path d="M845.9,586.9 C836.5,629.4 768.3,648.6 745.2,682.2 C722.1,715.7 747.1,760.5 707.3,788.1 C667.4,815.6 563.8,847.8 506.1,847.7 C448.4,847.7 401.5,818.5 361.3,787.7 C321.1,756.9 273.9,716.9 264.8,662.8 C255.8,608.8 291.2,517.6 307.1,463.2 C323.1,408.7 332.2,364.6 360.6,336.1 C388.9,307.7 426.0,289.9 477.0,292.4 C528.1,294.9 612.7,328.5 666.8,350.9 C720.9,373.4 771.8,387.9 801.6,427.2 C831.4,466.6 855.2,544.4 845.9,586.9Z" fill="#28C0DA" stroke="none"/>
<path d="M1153.8,470.8 C1150.3,505.5 1124.9,570.6 1104.4,611.0 C1083.9,651.4 1059.0,689.8 1030.6,713.1 C1002.3,736.4 973.4,752.2 934.3,750.8 C895.2,749.4 829.6,733.5 796.1,704.7 C762.6,675.8 760.0,627.2 733.5,577.6 C706.9,528.1 633.3,448.6 637.0,407.5 C640.6,366.5 711.5,371.0 755.2,331.3 C799.0,291.6 851.6,181.5 899.3,169.3 C947.0,157.1 1003.7,219.1 1041.4,257.9 C1079.1,296.8 1106.7,367.0 1125.4,402.4 C1144.1,437.9 1157.3,436.0 1153.8,470.8Z" fill="#28C0DA" stroke="none"/>
<path d="M1697.4,503.7 C1711.0,545.2 1673.2,619.1 1641.8,657.2 C1610.3,695.3 1564.5,716.2 1508.6,732.3 C1452.8,748.5 1358.2,755.8 1306.8,754.2 C1255.3,752.6 1229.6,746.1 1199.8,722.7 C1169.9,699.3 1147.4,653.8 1127.6,613.8 C1107.8,573.7 1068.6,520.7 1081.1,482.2 C1093.6,443.7 1164.9,411.5 1202.4,382.6 C1239.9,353.8 1256.6,331.5 1306.2,308.9 C1355.8,286.4 1457.8,230.6 1500.1,247.2 C1542.3,263.7 1526.8,365.4 1559.7,408.1 C1592.6,450.9 1683.7,462.2 1697.4,503.7Z" fill="#28C0DA" stroke="none"/>
<path d="M470.2,911.7 C474.1,959.0 514.8,1009.5 498.3,1046.4 C481.8,1083.3 427.7,1120.4 371.1,1133.1 C314.6,1145.7 215.3,1124.2 159.0,1122.3 C102.7,1120.5 60.9,1138.3 33.5,1121.9 C6.0,1105.6 3.6,1074.0 -5.8,1024.3 C-15.2,974.7 -38.3,872.4 -22.9,823.9 C-7.4,775.4 55.0,754.0 86.9,733.6 C118.8,713.2 124.3,718.9 168.4,701.5 C212.5,684.1 300.2,619.1 351.3,629.3 C402.3,639.5 455.1,715.6 474.9,762.7 C494.7,809.7 466.3,864.4 470.2,911.7Z" fill="#28C0DA" stroke="none"/>
<path d="M801.6,921.6 C792.0,966.1 762.6,998.3 735.5,1045.1 C708.4,1092.0 678.1,1187.6 639.0,1202.8 C599.8,1217.9 543.3,1153.3 500.7,1136.0 C458.0,1118.7 425.1,1116.3 383.2,1098.9 C341.4,1081.5 254.0,1078.0 249.4,1031.6 C244.7,985.1 331.7,878.0 355.5,820.1 C379.3,762.2 368.0,707.4 392.2,683.9 C416.4,660.5 454.9,679.0 500.8,679.3 C546.7,679.6 618.9,669.4 667.7,685.8 C716.5,702.2 771.2,738.5 793.5,777.8 C815.9,817.1 811.3,877.0 801.6,921.6Z" fill="#28C0DA" stroke="none"/>
<path d="M1251.9,910.3 C1257.8,961.4 1201.9,1045.3 1175.5,1087.9 C1149.2,1130.4 1127.5,1150.1 1093.6,1165.6 C1059.7,1181.2 1025.5,1186.9 972.2,1181.3 C918.9,1175.6 809.1,1159.2 773.7,1131.7 C738.4,1104.2 775.5,1059.3 760.1,1016.3 C744.8,973.3 666.3,918.6 681.8,873.5 C697.2,828.4 801.6,792.1 852.9,745.8 C904.2,699.6 947.1,608.9 989.8,596.0 C1032.6,583.1 1084.5,637.5 1109.5,668.5 C1134.6,699.4 1116.4,741.3 1140.2,781.6 C1163.9,821.9 1246.0,859.3 1251.9,910.3Z" fill="#28C0DA" stroke="none"/>
<path d="M1633.3,912.4 C1629.2,959.3 1553.8,1012.0 1530.3,1046.8 C1506.8,1081.5 1525.4,1092.9 1492.3,1121.0 C1459.2,1149.2 1387.8,1217.2 1331.5,1215.6 C1275.2,1214.0 1197.4,1149.0 1154.8,1111.3 C1112.2,1073.6 1086.0,1028.7 1076.1,989.2 C1066.1,949.8 1088.2,921.7 1095.2,874.4 C1102.2,827.1 1090.8,746.8 1118.3,705.5 C1145.8,664.2 1208.6,637.6 1260.2,626.5 C1311.8,615.4 1378.8,615.8 1428.0,639.0 C1477.1,662.2 1520.9,719.9 1555.2,765.5 C1589.4,811.0 1637.5,865.5 1633.3,912.4Z" fill="#28C0DA" stroke="none"/>
<path d="M228.6,307.5 C230.2,369.0 211.2,471.4 182.7,507.2 C154.3,543.1 99.7,517.5 57.7,522.5 C15.7,527.5 -26.0,552.0 -69.3,537.3 C-112.5,522.5 -173.5,469.0 -201.9,434.0 C-230.4,399.1 -235.4,365.4 -239.8,327.6 C-244.1,289.9 -254.9,248.2 -227.9,207.5 C-201.0,166.7 -116.1,98.5 -78.1,83.2 C-40.1,67.9 -41.8,106.5 0.0,115.8 C41.9,125.0 135.2,106.6 173.2,138.6 C211.3,170.5 227.0,246.1 228.6,307.5Z" fill="#28C0DA" stroke="none"/>
<path d="M1893.4,683.9 C1902.0,731.6 1886.3,858.8 1857.6,897.1 C1828.9,935.3 1773.5,904.4 1721.0,913.5 C1668.5,922.6 1588.4,956.7 1542.5,951.7 C1496.6,946.7 1473.2,920.5 1445.6,883.5 C1417.9,846.5 1374.4,773.3 1376.5,729.8 C1378.6,686.3 1420.3,660.5 1458.0,622.7 C1495.7,584.9 1562.4,529.9 1602.8,502.8 C1643.2,475.8 1666.3,442.4 1700.2,460.4 C1734.1,478.4 1774.0,573.7 1806.2,610.9 C1838.4,648.2 1884.8,636.2 1893.4,683.9Z" fill="#28C0DA" stroke="none"/>
<path d="M968.1,0.1 C963.5,38.2 963.2,73.0 937.8,97.8 C912.3,122.7 857.8,133.4 815.1,149.4 C772.4,165.3 727.0,201.0 681.8,193.5 C636.6,186.1 561.1,138.4 543.7,104.4 C526.3,70.5 562.7,34.8 577.3,-10.0 C592.0,-54.8 609.2,-130.0 631.5,-164.4 C653.8,-198.8 665.7,-198.7 711.2,-216.6 C756.8,-234.5 862.5,-286.4 904.8,-272.0 C947.2,-257.7 954.7,-175.9 965.2,-130.6 C975.7,-85.2 972.6,-38.0 968.1,0.1Z" fill="#28C0DA" stroke="none"/>
<path d="M632.6,1007.9 C627.4,1052.1 613.3,1111.7 587.7,1154.8 C562.1,1197.9 521.7,1246.7 479.0,1266.4 C436.3,1286.1 372.2,1287.1 331.5,1272.9 C290.8,1258.7 259.5,1221.3 234.9,1181.2 C210.3,1141.1 186.3,1083.7 184.0,1032.2 C181.6,980.8 196.5,922.6 220.6,872.6 C244.7,822.6 289.7,754.4 328.7,732.3 C367.6,710.2 405.9,713.6 454.2,739.8 C502.6,766.1 588.9,845.2 618.6,889.9 C648.3,934.5 637.7,963.7 632.6,1007.9Z" fill="#28C0DA" stroke="none"/>
<path d="M522.9,169.9 C520.7,224.6 438.4,310.2 405.9,356.1 C373.4,402.0 368.8,421.1 328.0,445.5 C287.3,470.0 198.3,512.6 161.4,502.9 C124.6,493.1 139.6,428.8 107.1,387.1 C74.5,345.3 -20.5,294.5 -33.7,252.2 C-46.9,209.9 18.0,176.3 27.8,133.2 C37.6,90.2 5.8,32.5 25.3,-6.0 C44.7,-44.5 93.1,-104.4 144.5,-97.8 C196.0,-91.2 288.3,12.4 334.0,33.3 C379.7,54.2 387.4,4.9 418.9,27.7 C450.4,50.4 525.0,115.2 522.9,169.9Z" fill="none" stroke="white" stroke-width="22" stroke-linejoin="round" stroke-linecap="round"/>
<path d="M858.0,261.8 C865.2,299.8 780.9,258.8 743.5,296.6 C706.1,334.5 674.8,463.6 633.6,488.8 C592.3,513.9 542.2,460.3 495.9,447.6 C449.5,434.9 383.6,442.7 355.4,412.6 C327.3,382.5 336.3,311.7 327.2,267.1 C318.1,222.5 296.5,197.8 300.9,144.9 C305.4,92.1 312.4,-15.9 353.9,-50.0 C395.4,-84.2 502.5,-67.0 550.1,-60.1 C597.7,-53.2 614.5,-29.9 639.5,-8.4 C664.6,13.1 663.8,23.7 700.2,68.7 C736.7,113.8 850.7,223.9 858.0,261.8Z" fill="none" stroke="white" stroke-width="22" stroke-linejoin="round" stroke-linecap="round"/>
<path d="M1249.0,184.6 C1257.8,225.1 1251.4,311.4 1219.9,348.7 C1188.4,386.1 1098.5,381.2 1060.1,408.8 C1021.8,436.4 1026.1,515.7 989.9,514.2 C953.6,512.6 887.6,445.5 842.6,399.5 C797.6,353.4 737.2,286.8 720.0,238.0 C702.7,189.1 718.8,140.4 739.2,106.3 C759.5,72.2 806.5,67.2 841.8,33.4 C877.1,-0.4 907.3,-81.7 951.0,-96.5 C994.7,-111.4 1068.0,-89.3 1104.0,-55.6 C1140.0,-21.9 1142.8,65.5 1167.0,105.5 C1191.1,145.6 1240.1,144.0 1249.0,184.6Z" fill="none" stroke="white" stroke-width="22" stroke-linejoin="round" stroke-linecap="round"/>
<path d="M1567.7,189.2 C1562.6,236.1 1556.5,285.7 1543.5,324.4 C1530.5,363.1 1536.6,392.6 1489.9,421.4 C1443.2,450.3 1314.6,505.7 1263.3,497.2 C1211.9,488.7 1205.5,407.6 1181.6,370.5 C1157.7,333.3 1127.8,307.1 1119.8,274.3 C1111.9,241.5 1133.9,220.1 1134.0,173.4 C1134.1,126.8 1085.7,38.5 1120.5,-5.5 C1155.3,-49.5 1284.9,-93.7 1342.7,-90.7 C1400.4,-87.6 1428.6,-9.3 1467.2,13.0 C1505.8,35.2 1557.7,13.6 1574.5,43.0 C1591.2,72.4 1572.9,142.4 1567.7,189.2Z" fill="none" stroke="white" stroke-width="22" stroke-linejoin="round" stroke-linecap="round"/>
<path d="M572.9,528.0 C580.6,578.2 557.9,666.3 526.7,713.4 C495.4,760.6 425.3,800.6 385.4,811.0 C345.5,821.4 340.6,795.0 287.0,775.9 C233.3,756.8 101.0,734.6 63.5,696.3 C26.1,658.0 64.0,586.8 62.3,546.0 C60.6,505.1 46.4,491.3 53.4,451.2 C60.3,411.1 78.4,331.5 104.1,305.4 C129.8,279.3 160.3,308.8 207.5,294.7 C254.6,280.5 341.7,200.8 387.2,220.4 C432.7,239.9 449.4,360.6 480.3,411.8 C511.3,463.1 565.2,477.7 572.9,528.0Z" fill="none" stroke="white" stroke-width="22" stroke-linejoin="round" stroke-linecap="round"/>
<path d="M845.9,586.9 C836.5,629.4 768.3,648.6 745.2,682.2 C722.1,715.7 747.1,760.5 707.3,788.1 C667.4,815.6 563.8,847.8 506.1,847.7 C448.4,847.7 401.5,818.5 361.3,787.7 C321.1,756.9 273.9,716.9 264.8,662.8 C255.8,608.8 291.2,517.6 307.1,463.2 C323.1,408.7 332.2,364.6 360.6,336.1 C388.9,307.7 426.0,289.9 477.0,292.4 C528.1,294.9 612.7,328.5 666.8,350.9 C720.9,373.4 771.8,387.9 801.6,427.2 C831.4,466.6 855.2,544.4 845.9,586.9Z" fill="none" stroke="white" stroke-width="22" stroke-linejoin="round" stroke-linecap="round"/>
<path d="M1153.8,470.8 C1150.3,505.5 1124.9,570.6 1104.4,611.0 C1083.9,651.4 1059.0,689.8 1030.6,713.1 C1002.3,736.4 973.4,752.2 934.3,750.8 C895.2,749.4 829.6,733.5 796.1,704.7 C762.6,675.8 760.0,627.2 733.5,577.6 C706.9,528.1 633.3,448.6 637.0,407.5 C640.6,366.5 711.5,371.0 755.2,331.3 C799.0,291.6 851.6,181.5 899.3,169.3 C947.0,157.1 1003.7,219.1 1041.4,257.9 C1079.1,296.8 1106.7,367.0 1125.4,402.4 C1144.1,437.9 1157.3,436.0 1153.8,470.8Z" fill="none" stroke="white" stroke-width="22" stroke-linejoin="round" stroke-linecap="round"/>
<path d="M1697.4,503.7 C1711.0,545.2 1673.2,619.1 1641.8,657.2 C1610.3,695.3 1564.5,716.2 1508.6,732.3 C1452.8,748.5 1358.2,755.8 1306.8,754.2 C1255.3,752.6 1229.6,746.1 1199.8,722.7 C1169.9,699.3 1147.4,653.8 1127.6,613.8 C1107.8,573.7 1068.6,520.7 1081.1,482.2 C1093.6,443.7 1164.9,411.5 1202.4,382.6 C1239.9,353.8 1256.6,331.5 1306.2,308.9 C1355.8,286.4 1457.8,230.6 1500.1,247.2 C1542.3,263.7 1526.8,365.4 1559.7,408.1 C1592.6,450.9 1683.7,462.2 1697.4,503.7Z" fill="none" stroke="white" stroke-width="22" stroke-linejoin="round" stroke-linecap="round"/>
<path d="M470.2,911.7 C474.1,959.0 514.8,1009.5 498.3,1046.4 C481.8,1083.3 427.7,1120.4 371.1,1133.1 C314.6,1145.7 215.3,1124.2 159.0,1122.3 C102.7,1120.5 60.9,1138.3 33.5,1121.9 C6.0,1105.6 3.6,1074.0 -5.8,1024.3 C-15.2,974.7 -38.3,872.4 -22.9,823.9 C-7.4,775.4 55.0,754.0 86.9,733.6 C118.8,713.2 124.3,718.9 168.4,701.5 C212.5,684.1 300.2,619.1 351.3,629.3 C402.3,639.5 455.1,715.6 474.9,762.7 C494.7,809.7 466.3,864.4 470.2,911.7Z" fill="none" stroke="white" stroke-width="22" stroke-linejoin="round" stroke-linecap="round"/>
<path d="M801.6,921.6 C792.0,966.1 762.6,998.3 735.5,1045.1 C708.4,1092.0 678.1,1187.6 639.0,1202.8 C599.8,1217.9 543.3,1153.3 500.7,1136.0 C458.0,1118.7 425.1,1116.3 383.2,1098.9 C341.4,1081.5 254.0,1078.0 249.4,1031.6 C244.7,985.1 331.7,878.0 355.5,820.1 C379.3,762.2 368.0,707.4 392.2,683.9 C416.4,660.5 454.9,679.0 500.8,679.3 C546.7,679.6 618.9,669.4 667.7,685.8 C716.5,702.2 771.2,738.5 793.5,777.8 C815.9,817.1 811.3,877.0 801.6,921.6Z" fill="none" stroke="white" stroke-width="22" stroke-linejoin="round" stroke-linecap="round"/>
<path d="M1251.9,910.3 C1257.8,961.4 1201.9,1045.3 1175.5,1087.9 C1149.2,1130.4 1127.5,1150.1 1093.6,1165.6 C1059.7,1181.2 1025.5,1186.9 972.2,1181.3 C918.9,1175.6 809.1,1159.2 773.7,1131.7 C738.4,1104.2 775.5,1059.3 760.1,1016.3 C744.8,973.3 666.3,918.6 681.8,873.5 C697.2,828.4 801.6,792.1 852.9,745.8 C904.2,699.6 947.1,608.9 989.8,596.0 C1032.6,583.1 1084.5,637.5 1109.5,668.5 C1134.6,699.4 1116.4,741.3 1140.2,781.6 C1163.9,821.9 1246.0,859.3 1251.9,910.3Z" fill="none" stroke="white" stroke-width="22" stroke-linejoin="round" stroke-linecap="round"/>
<path d="M1633.3,912.4 C1629.2,959.3 1553.8,1012.0 1530.3,1046.8 C1506.8,1081.5 1525.4,1092.9 1492.3,1121.0 C1459.2,1149.2 1387.8,1217.2 1331.5,1215.6 C1275.2,1214.0 1197.4,1149.0 1154.8,1111.3 C1112.2,1073.6 1086.0,1028.7 1076.1,989.2 C1066.1,949.8 1088.2,921.7 1095.2,874.4 C1102.2,827.1 1090.8,746.8 1118.3,705.5 C1145.8,664.2 1208.6,637.6 1260.2,626.5 C1311.8,615.4 1378.8,615.8 1428.0,639.0 C1477.1,662.2 1520.9,719.9 1555.2,765.5 C1589.4,811.0 1637.5,865.5 1633.3,912.4Z" fill="none" stroke="white" stroke-width="22" stroke-linejoin="round" stroke-linecap="round"/>
<path d="M228.6,307.5 C230.2,369.0 211.2,471.4 182.7,507.2 C154.3,543.1 99.7,517.5 57.7,522.5 C15.7,527.5 -26.0,552.0 -69.3,537.3 C-112.5,522.5 -173.5,469.0 -201.9,434.0 C-230.4,399.1 -235.4,365.4 -239.8,327.6 C-244.1,289.9 -254.9,248.2 -227.9,207.5 C-201.0,166.7 -116.1,98.5 -78.1,83.2 C-40.1,67.9 -41.8,106.5 0.0,115.8 C41.9,125.0 135.2,106.6 173.2,138.6 C211.3,170.5 227.0,246.1 228.6,307.5Z" fill="none" stroke="white" stroke-width="22" stroke-linejoin="round" stroke-linecap="round"/>
<path d="M1893.4,683.9 C1902.0,731.6 1886.3,858.8 1857.6,897.1 C1828.9,935.3 1773.5,904.4 1721.0,913.5 C1668.5,922.6 1588.4,956.7 1542.5,951.7 C1496.6,946.7 1473.2,920.5 1445.6,883.5 C1417.9,846.5 1374.4,773.3 1376.5,729.8 C1378.6,686.3 1420.3,660.5 1458.0,622.7 C1495.7,584.9 1562.4,529.9 1602.8,502.8 C1643.2,475.8 1666.3,442.4 1700.2,460.4 C1734.1,478.4 1774.0,573.7 1806.2,610.9 C1838.4,648.2 1884.8,636.2 1893.4,683.9Z" fill="none" stroke="white" stroke-width="22" stroke-linejoin="round" stroke-linecap="round"/>
<path d="M968.1,0.1 C963.5,38.2 963.2,73.0 937.8,97.8 C912.3,122.7 857.8,133.4 815.1,149.4 C772.4,165.3 727.0,201.0 681.8,193.5 C636.6,186.1 561.1,138.4 543.7,104.4 C526.3,70.5 562.7,34.8 577.3,-10.0 C592.0,-54.8 609.2,-130.0 631.5,-164.4 C653.8,-198.8 665.7,-198.7 711.2,-216.6 C756.8,-234.5 862.5,-286.4 904.8,-272.0 C947.2,-257.7 954.7,-175.9 965.2,-130.6 C975.7,-85.2 972.6,-38.0 968.1,0.1Z" fill="none" stroke="white" stroke-width="22" stroke-linejoin="round" stroke-linecap="round"/>
<path d="M632.6,1007.9 C627.4,1052.1 613.3,1111.7 587.7,1154.8 C562.1,1197.9 521.7,1246.7 479.0,1266.4 C436.3,1286.1 372.2,1287.1 331.5,1272.9 C290.8,1258.7 259.5,1221.3 234.9,1181.2 C210.3,1141.1 186.3,1083.7 184.0,1032.2 C181.6,980.8 196.5,922.6 220.6,872.6 C244.7,822.6 289.7,754.4 328.7,732.3 C367.6,710.2 405.9,713.6 454.2,739.8 C502.6,766.1 588.9,845.2 618.6,889.9 C648.3,934.5 637.7,963.7 632.6,1007.9Z" fill="none" stroke="white" stroke-width="22" stroke-linejoin="round" stroke-linecap="round"/>
</svg>